<svg width="56" height="56" viewBox="0 0 56 56" fill="none" xmlns="http://www.w3.org/2000/svg">
<path d="M48.125 45.7188H7.875C6.90703 45.7188 6.125 46.5008 6.125 47.4688V49.4375C6.125 49.6781 6.32187 49.875 6.5625 49.875H49.4375C49.6781 49.875 49.875 49.6781 49.875 49.4375V47.4688C49.875 46.5008 49.093 45.7188 48.125 45.7188ZM14.093 41.125C14.2023 41.125 14.3117 41.1141 14.4211 41.0977L23.6195 39.4844C23.7289 39.4625 23.8328 39.4133 23.9094 39.3312L47.0914 16.1492C47.1421 16.0986 47.1823 16.0385 47.2098 15.9724C47.2372 15.9062 47.2513 15.8353 47.2513 15.7637C47.2513 15.692 47.2372 15.6211 47.2098 15.555C47.1823 15.4888 47.1421 15.4287 47.0914 15.3781L38.0023 6.28359C37.8984 6.17969 37.7617 6.125 37.6141 6.125C37.4664 6.125 37.3297 6.17969 37.2258 6.28359L14.0437 29.4656C13.9617 29.5477 13.9125 29.6461 13.8906 29.7555L12.2773 38.9539C12.2241 39.2469 12.2432 39.5484 12.3327 39.8324C12.4223 40.1163 12.5797 40.3742 12.7914 40.5836C13.1523 40.9336 13.6063 41.125 14.093 41.125Z" fill="#6D995D"/>
</svg>
