<svg width="112" height="112" viewBox="0 0 112 112" fill="none" xmlns="http://www.w3.org/2000/svg">
<path fill-rule="evenodd" clip-rule="evenodd" d="M55.9971 0C25.0722 0 0 25.7086 0 57.421C0 82.7895 16.0418 104.311 38.2968 111.899C41.0997 112.43 42.1192 110.662 42.1192 109.136C42.1192 107.775 42.0704 104.167 42.046 99.3701C26.4679 102.843 23.1811 91.6716 23.1811 91.6716C20.6338 85.0391 16.9623 83.2754 16.9623 83.2754C11.8777 79.7154 17.3485 79.7846 17.3485 79.7846C22.9686 80.1924 25.9266 85.7002 25.9266 85.7002C30.9206 94.4748 39.0349 91.9352 42.224 90.4747C42.7309 86.7572 44.1811 84.2323 45.7793 82.7939C33.3458 81.3452 20.2734 76.419 20.2734 54.4176C20.2734 48.1473 22.4546 43.0209 26.0357 39.006C25.4628 37.5603 23.5372 31.7228 26.5856 23.8138C26.5856 23.8138 31.2868 22.2709 41.9871 29.7043C46.4513 28.4249 51.2429 27.7859 56.0057 27.7668C60.7614 27.7874 65.5545 28.4249 70.0244 29.7043C80.7175 22.2709 85.4115 23.8138 85.4115 23.8138C88.4671 31.7228 86.543 37.5603 85.9686 39.006C89.5584 43.0209 91.7237 48.1473 91.7237 54.4176C91.7237 76.4706 78.6326 81.329 66.1575 82.7453C68.1649 84.5194 69.9569 88.0307 69.9569 93.3883C69.9569 101.06 69.8894 107.251 69.8894 109.134C69.8894 110.673 70.896 112.461 73.7391 111.892C95.9696 104.287 112 82.7821 112 57.421C112 25.7086 86.9278 0 55.9971 0Z" fill="#6D995D"/>
</svg>
