<svg width="191" height="50" viewBox="0 0 191 50" fill="none" xmlns="http://www.w3.org/2000/svg">
<g filter="url(#filter0_i_32_6)">
<path d="M172.929 41.8291C173.082 42.8116 172.439 44.1521 172.099 44.6997L171.153 45.3905C170.336 45.7722 168.048 46.7712 165.425 47.7115C162.801 48.6519 160.147 46.9831 159.148 46.0312C158.967 45.7719 158.451 44.9159 157.843 43.565C157.234 42.2143 157.283 39.8497 157.383 38.8363L161.202 37.2889C162.128 36.8625 164.53 35.8174 166.732 35.048C168.935 34.2783 170.374 35.7738 170.818 36.618C171.458 37.9454 172.776 40.8466 172.929 41.8291Z" fill="#6D995D"/>
<path d="M153.174 4.95797L153.415 5.5528C154.845 5.15836 156.893 5.96478 157.738 6.41727L166.154 12.8562L163.705 16.6181L174.611 12.0456L176.016 0.24258L173.184 3.62162L171.768 2.57934C171.6 2.41653 170.852 1.82711 169.202 0.772096C167.553 -0.282918 165.617 -0.0321093 164.855 0.225151L153.174 4.95797Z" fill="#6D995D"/>
<path d="M158.312 16.7934L159.415 8.67431L157.031 7.35368C156.428 7.00769 153.654 6.43542 151.948 6.97925C149.129 7.87762 148.033 10.6311 147.477 12.1107L147.162 14.3774C147.147 14.5311 147.017 14.8195 146.747 17.3486C147.036 19.8873 149.11 20.6452 150.112 20.7066L151.626 20.8309C152.117 20.9022 153.519 21.0522 155.195 21.081C157.636 20.564 158.291 18.0071 158.312 16.7934Z" fill="#6D995D"/>
<path d="M190.722 22.7242L190.069 22.6113C189.636 24.5378 187.39 25.9861 186.321 26.4693L177.783 30.3058L175.802 26.3536L174.568 38.0993L184.151 44.7077L182.969 41.7901L182.522 40.6881C182.522 40.6881 185.403 39.3702 185.832 39.1204C186.289 38.9357 187.006 38.6451 187.436 38.3956C187.866 38.1457 189.499 35.4732 189.526 34.3786C189.619 33.813 190.034 29.2669 190.034 29.2669L190.722 22.7242Z" fill="#6D995D"/>
<path d="M175.94 20.0395L184.285 25.7153C184.728 25.5356 185.846 24.9797 186.768 24.194C187.689 23.4083 188.271 22.6766 188.447 22.4093C188.658 22.1026 189.152 21.3576 189.435 20.8308C189.717 20.304 189.781 19.3899 189.777 18.9986C189.758 18.7609 189.689 18.0918 189.561 17.3188C189.434 16.5456 188.559 15.4178 188.137 14.9507L187.066 13.8382L185.334 12.6253L182.891 11.1854C182.44 10.9017 181.254 10.4349 180.115 10.8374C178.976 11.2399 178.187 12.1341 177.934 12.5308C177.646 12.9668 176.697 14.3724 175.206 16.508C174.547 18.2474 175.421 19.5871 175.94 20.0395Z" fill="#6D995D"/>
<path d="M157.004 45.8121L157.361 45.3656C155.961 43.2771 156.064 40.962 156.291 40.0655L157.633 30.8455L162.069 31.1605L152.869 24.0244L141.833 28.4967L146.162 29.3075L145.948 30.2994C145.899 30.6211 145.765 31.8221 145.623 34.0526C145.48 36.2831 146.701 37.7903 147.329 38.2649L151.929 41.8328L157.004 45.8121Z" fill="#6D995D"/>
<path d="M4.73528 37.2043C4.65571 37.2043 4.52306 37.2176 4.33737 37.2442C4.17818 37.2708 3.99249 37.2971 3.78027 37.3237C3.59458 37.3503 3.40887 37.3769 3.22316 37.4032C3.03748 37.4298 2.89158 37.4431 2.78547 37.4431C2.04268 37.4431 1.39273 37.1381 0.835639 36.528C0.278547 35.8913 0 35.0555 0 34.0209C0 33.3314 0.225491 32.6681 0.67647 32.0314C1.12745 31.3947 1.83045 30.8642 2.78547 30.4397C3.07726 30.307 3.30276 30.1613 3.46193 30.002C3.64761 29.8164 3.74048 29.5642 3.74048 29.2459C3.74048 28.397 3.71394 27.4952 3.66088 26.5402C3.63437 25.5586 3.58131 24.418 3.50171 23.118C3.4752 22.8529 3.38236 22.6008 3.22316 22.3619C3.09054 22.1231 2.93137 21.858 2.74568 21.5662C2.58649 21.2479 2.44059 20.903 2.30796 20.5314C2.17531 20.1602 2.10901 19.6958 2.10901 19.1387C2.10901 18.6347 2.17531 18.0645 2.30796 17.4279C2.46713 16.7646 2.7722 16.1545 3.22316 15.5974C3.7007 15.0136 4.35062 14.5363 5.17301 14.1647C6.02191 13.7669 7.12282 13.568 8.47577 13.568C9.03285 13.568 9.49708 13.6209 9.86848 13.7273C10.2399 13.8331 10.5582 13.9658 10.8235 14.1251C11.1153 14.2575 11.3673 14.377 11.5796 14.4831C11.8183 14.5892 12.0571 14.6424 12.2958 14.6424C12.7203 14.6424 13.5692 14.5629 14.8425 14.4035C16.1159 14.2445 17.6413 14.019 19.4186 13.7273C21.2225 13.4352 23.1989 13.1036 25.3477 12.7324C27.5229 12.3609 29.7247 11.963 31.9533 11.5386C34.1814 11.0876 36.3569 10.6366 38.4791 10.1856C40.6014 9.73466 42.5247 9.29694 44.2491 8.87249C44.7797 8.73986 45.2438 8.67354 45.6416 8.67354C46.1988 8.67354 46.6365 8.80619 46.9549 9.07147C47.2998 9.31021 47.5516 9.61527 47.7109 9.98669C47.8703 10.3581 47.9631 10.7825 47.9894 11.26C48.0426 11.711 48.0692 12.1354 48.0692 12.5334C48.0692 13.223 47.8304 13.873 47.3527 14.4831C46.9019 15.0668 46.1459 15.5309 45.0847 15.8758C42.4582 16.6452 39.8057 17.3218 37.1263 17.9052C34.4734 18.4624 31.794 18.9797 29.088 19.4573C26.3823 19.9081 23.6631 20.3192 20.9307 20.6907C18.1983 21.062 15.4792 21.4335 12.7733 21.8048C12.4019 21.858 12.1234 22.004 11.9377 22.2425C11.752 22.4548 11.6592 22.7465 11.6592 23.118V24.7496C11.6592 25.2004 11.6724 25.6647 11.6989 26.1421C11.7255 26.6197 11.7785 27.0575 11.8581 27.4553C11.9642 27.8532 12.0968 28.1848 12.256 28.4502C12.4152 28.6888 12.6274 28.8082 12.8927 28.8082C13.5294 28.8082 14.5109 28.6757 15.8373 28.4103C17.1903 28.1452 18.7024 27.8268 20.3736 27.4553C22.0714 27.0575 23.8356 26.633 25.666 26.182C27.5229 25.7046 29.2739 25.2802 30.9185 24.9086C32.5634 24.5108 34.0091 24.1791 35.2559 23.914C36.5029 23.6486 37.3781 23.5159 37.8824 23.5159C38.6251 23.5159 39.182 23.7946 39.5536 24.3515C39.9514 24.882 40.2168 25.5586 40.3493 26.3809C40.3493 26.5136 40.3626 26.633 40.3892 26.7391C40.4158 26.8452 40.4291 26.9646 40.4291 27.0974C40.4291 27.8665 40.1902 28.5829 39.7126 29.2459C39.2618 29.8826 38.4392 30.3602 37.2457 30.6786C36.9273 30.7847 36.2907 30.957 35.3357 31.1958C34.3806 31.408 33.253 31.6732 31.9533 31.9915C30.6534 32.2835 29.2473 32.6019 27.7352 32.9465C26.2231 33.2915 24.7375 33.6364 23.2785 33.9813C21.8194 34.2997 20.4532 34.618 19.1799 34.9363C17.933 35.2281 16.9117 35.4669 16.1159 35.6525C15.3996 35.8381 14.9619 35.9842 14.8027 36.0903C14.6701 36.1964 14.6038 36.3288 14.6038 36.4881C14.6568 37.0719 14.9486 37.6154 15.4792 38.1197C16.0363 38.6237 16.726 39.0877 17.5484 39.5122C18.3973 39.9366 19.3391 40.3214 20.3736 40.6664C21.4348 41.011 22.5224 41.303 23.6366 41.5416C24.7773 41.7538 25.8915 41.9264 26.9791 42.0588C28.0668 42.1916 29.075 42.2581 30.0034 42.2581C30.4013 42.2581 30.9717 42.2581 31.7145 42.2581C32.4573 42.2581 33.2663 42.2448 34.1418 42.2182C35.0436 42.1652 35.959 42.0987 36.8874 42.0192C37.8425 41.9397 38.6914 41.8336 39.4342 41.7009C40.2035 41.5416 40.8269 41.356 41.3043 41.1437C41.8085 40.9049 42.0604 40.6265 42.0604 40.3081C42.0604 40.0164 41.9543 39.7114 41.742 39.393C41.5564 39.0747 41.4636 38.7298 41.4636 38.3582C41.4636 37.8277 41.6093 37.3104 41.9013 36.8064C42.1931 36.2759 42.5646 35.8115 43.0154 35.4137C43.493 34.9893 44.0236 34.6576 44.6071 34.4188C45.2172 34.1537 45.8275 34.0209 46.4376 34.0209C47.207 34.0209 47.9099 34.1803 48.5465 34.4986C49.1832 34.7903 49.7271 35.1882 50.1781 35.6921C50.6555 36.1698 51.0137 36.7269 51.2526 37.3636C51.5177 38.0003 51.6504 38.6502 51.6504 39.3132C51.6504 41.0642 51.0004 42.5764 49.7005 43.8497C48.4271 45.1231 46.7559 46.1709 44.6869 46.9932C42.6175 47.8421 40.2831 48.4655 37.6834 48.8633C35.0835 49.2878 32.4706 49.5 29.8441 49.5C26.7668 49.5 23.955 49.2878 21.4083 48.8633C18.8615 48.4655 16.5801 47.8155 14.564 46.9137C12.5478 46.0116 10.8103 44.8444 9.35119 43.412C7.89212 41.953 6.69837 40.1887 5.76987 38.1197C5.45153 37.5093 5.10668 37.2043 4.73528 37.2043ZM69.1986 12.2946C67.7131 12.2946 66.3339 12.6528 65.0605 13.369C63.8135 14.0586 62.7127 15.0269 61.7577 16.2739C60.829 17.4941 60.0995 18.9398 59.569 20.6112C59.0384 22.2824 58.7733 24.073 58.7733 25.983C58.7733 27.9463 59.211 29.7632 60.0862 31.4346C60.9883 33.0792 62.2218 34.5252 63.7872 35.7719C65.3786 36.9921 67.2357 37.9471 69.3579 38.6369C71.5068 39.3265 73.8413 39.6715 76.3614 39.6715C78.1919 39.6715 79.9163 39.5122 81.5343 39.1941C83.1792 38.8492 84.6116 38.3981 85.832 37.841C87.0522 37.2841 88.0205 36.6341 88.7367 35.8913C89.4532 35.122 89.8111 34.313 89.8111 33.4641C89.8111 32.8008 89.6917 32.2569 89.4531 31.8325C89.2143 31.3814 88.9356 30.9836 88.6175 30.6387C88.3255 30.2674 88.0604 29.9092 87.8216 29.5642C87.5827 29.193 87.4633 28.7286 87.4633 28.1715C87.4633 27.6409 87.596 27.137 87.8615 26.6596C88.1266 26.182 88.4848 25.7575 88.9356 25.3863C89.4133 25.0147 89.9438 24.723 90.5276 24.5108C91.1377 24.2985 91.761 24.1924 92.3977 24.1924C93.1671 24.1924 93.8833 24.3914 94.5466 24.7892C95.2362 25.1873 95.8199 25.7442 96.2973 26.4607C96.8012 27.1503 97.1861 27.9726 97.4512 28.9276C97.7432 29.8563 97.889 30.8509 97.889 31.912C97.889 34.0608 97.3188 36.0637 96.1779 37.9208C95.0372 39.751 93.4588 41.3294 91.4427 42.6559C89.4266 43.9822 87.0389 45.03 84.2799 45.7994C81.521 46.5421 78.5235 46.9137 75.287 46.9137C71.7057 46.9137 68.4029 46.436 65.3786 45.481C62.3545 44.4997 59.7416 43.1466 57.5395 41.4222C55.3644 39.6981 53.6666 37.6553 52.4461 35.2943C51.226 32.9332 50.6159 30.3469 50.6159 27.5348C50.6159 24.4576 51.1465 21.5529 52.2076 18.8206C53.295 16.088 54.7673 13.7007 56.6244 11.6579C58.4815 9.61527 60.6434 7.99708 63.1106 6.80334C65.6041 5.60957 68.2569 5.01268 71.069 5.01268C72.3158 5.01268 73.4564 5.1586 74.4913 5.4504C75.5524 5.71568 76.4675 6.10034 77.2369 6.60436C78.0063 7.1084 78.6031 7.70526 79.0275 8.39502C79.4786 9.0582 79.7041 9.78771 79.7041 10.5836C79.7041 11.2202 79.5581 11.8304 79.2663 12.414C79.0009 12.9712 78.643 13.4751 78.1919 13.9262C77.7409 14.3506 77.2103 14.6953 76.6002 14.9607C76.0164 15.2258 75.3931 15.3586 74.7298 15.3586C74.0402 15.3586 73.483 15.1995 73.0586 14.8812C72.6607 14.5629 72.2892 14.2179 71.9445 13.8464C71.5996 13.4485 71.2281 13.0906 70.8302 12.772C70.4324 12.4538 69.8885 12.2946 69.1986 12.2946ZM121.366 16.8308C121.366 16.5391 121.3 16.1013 121.168 15.5179C121.035 14.9341 120.876 14.2708 120.69 13.5281C120.504 12.759 120.292 11.9497 120.053 11.1008C119.815 10.2254 119.602 9.37653 119.417 8.55415C119.231 7.7318 119.072 6.96248 118.939 6.24624C118.806 5.52999 118.74 4.93311 118.74 4.4556C118.74 3.84545 118.913 3.35467 119.258 2.98331C119.602 2.58538 120.04 2.28031 120.571 2.06809C121.101 1.85586 121.672 1.70997 122.282 1.63037C122.892 1.55077 123.475 1.51099 124.033 1.51099C124.722 1.51099 125.385 1.70997 126.022 2.10787C126.685 2.47926 127.136 3.15572 127.375 4.13727C127.667 5.17185 127.906 6.21969 128.091 7.28081C128.304 8.31542 128.489 9.33675 128.648 10.3448C128.808 11.3263 128.953 12.2813 129.086 13.2097C129.245 14.1384 129.404 15.0006 129.564 15.7963C129.723 16.433 129.922 16.9369 130.161 17.3085C130.426 17.6797 130.731 17.9717 131.076 18.184C131.447 18.3696 131.832 18.489 132.23 18.5419C132.654 18.5951 133.105 18.6214 133.583 18.6214C134.113 18.6214 134.684 18.5685 135.294 18.4624C135.904 18.3563 136.501 18.3031 137.084 18.3031C137.456 18.3031 137.814 18.3696 138.159 18.502C138.53 18.6084 138.862 18.8206 139.154 19.1387C139.445 19.4307 139.671 19.8419 139.83 20.3724C140.016 20.903 140.109 21.5795 140.109 22.4018C140.109 23.0914 139.976 23.6752 139.711 24.1525C139.445 24.6036 138.941 24.9086 138.199 25.0679L136.766 25.3863C136.315 25.4658 135.891 25.532 135.493 25.5852C135.121 25.6118 134.644 25.6514 134.06 25.7046C132.813 25.837 132.19 26.3809 132.19 27.3359C132.19 27.4154 132.243 27.7736 132.349 28.4103C132.455 29.047 132.588 29.843 132.747 30.798C132.933 31.7264 133.132 32.7609 133.344 33.9015C133.556 35.0158 133.755 36.0903 133.941 37.1248C134.153 38.1593 134.339 39.0877 134.498 39.9103C134.657 40.706 134.776 41.2765 134.856 41.6214C134.989 42.2049 135.095 42.6559 135.174 42.9742C135.254 43.2926 135.294 43.7303 135.294 44.2875C135.294 44.7119 135.174 45.1364 134.936 45.5608C134.697 45.9587 134.339 46.3166 133.861 46.635C133.41 46.9533 132.853 47.2054 132.19 47.391C131.527 47.6033 130.771 47.7094 129.922 47.7094C128.993 47.7094 128.317 47.4309 127.892 46.8738C127.494 46.2903 127.216 45.627 127.057 44.8843C126.712 43.5048 126.38 42.0854 126.062 40.6265C125.77 39.1675 125.478 37.7216 125.187 36.2892C124.921 34.8565 124.656 33.4641 124.391 32.1109C124.152 30.7315 123.926 29.4185 123.714 28.1715C123.582 27.588 123.343 27.1636 122.998 26.8981C122.653 26.6064 122.215 26.4607 121.685 26.4607C119.881 26.4607 118.064 26.5269 116.233 26.6596C114.429 26.7657 112.652 26.8585 110.901 26.938C110.291 26.991 109.813 27.1902 109.469 27.5348C109.124 27.8798 108.951 28.3308 108.951 28.888C108.951 30.1347 108.965 31.3681 108.991 32.5886C109.018 33.8087 109.031 35.0555 109.031 36.3288C109.031 37.7881 109.004 39.2869 108.951 40.8254C108.925 42.3642 108.872 43.8497 108.792 45.2821C108.739 45.8127 108.58 46.2504 108.315 46.5953C108.076 46.94 107.757 47.2187 107.36 47.4309C106.988 47.6432 106.55 47.7889 106.046 47.8687C105.569 47.9482 105.078 47.9881 104.574 47.9881C103.327 47.9881 102.359 47.7759 101.669 47.3514C100.98 46.9533 100.635 46.2637 100.635 45.2821C100.635 43.7965 100.675 42.2448 100.754 40.6265C100.834 39.0082 100.873 37.3769 100.873 35.732C100.873 34.618 100.86 33.5436 100.834 32.5088C100.807 31.4477 100.794 30.3602 100.794 29.2459C100.794 28.742 100.675 28.3707 100.436 28.1319C100.223 27.8665 99.9583 27.6542 99.64 27.4952C99.3216 27.3359 98.9634 27.1902 98.5656 27.0575C98.1677 26.8981 97.8095 26.6729 97.4911 26.3809C97.1728 26.0892 96.8943 25.6647 96.6555 25.1075C96.4433 24.5507 96.3372 23.7813 96.3372 22.7997C96.3372 22.2691 96.43 21.858 96.6156 21.5662C96.8279 21.2479 97.08 20.9958 97.3717 20.8102C97.69 20.6243 98.0217 20.4785 98.3666 20.3724C98.7113 20.2397 99.0296 20.0807 99.3216 19.8948C99.64 19.7091 99.8918 19.4836 100.078 19.2185C100.29 18.9265 100.396 18.5153 100.396 17.9848C100.396 17.6664 100.383 17.2952 100.356 16.8707C100.33 16.4197 100.303 15.9952 100.277 15.5974C100.25 15.1995 100.223 14.8546 100.197 14.5629C100.171 14.2445 100.157 14.0323 100.157 13.9262C100.157 13.0241 100.277 12.3079 100.515 11.7773C100.781 11.2202 101.099 10.809 101.47 10.5438C101.842 10.2519 102.253 10.0663 102.704 9.98669C103.181 9.88058 103.632 9.8275 104.057 9.8275C105.649 9.8275 106.75 10.1326 107.36 10.7427C107.996 11.3263 108.341 12.1885 108.394 13.3291L108.553 17.5074C108.606 18.1441 108.779 18.6347 109.071 18.9797C109.362 19.298 109.84 19.4573 110.503 19.4573L119.536 19.1387C120.305 19.0858 120.796 18.8735 121.008 18.502C121.247 18.1308 121.366 17.5736 121.366 16.8308Z" fill="#6D995D"/>
</g>
<defs>
<filter id="filter0_i_32_6" x="0" y="0" width="190.722" height="53.5" filterUnits="userSpaceOnUse" color-interpolation-filters="sRGB">
<feFlood flood-opacity="0" result="BackgroundImageFix"/>
<feBlend mode="normal" in="SourceGraphic" in2="BackgroundImageFix" result="shape"/>
<feColorMatrix in="SourceAlpha" type="matrix" values="0 0 0 0 0 0 0 0 0 0 0 0 0 0 0 0 0 0 127 0" result="hardAlpha"/>
<feOffset dy="4"/>
<feGaussianBlur stdDeviation="2"/>
<feComposite in2="hardAlpha" operator="arithmetic" k2="-1" k3="1"/>
<feColorMatrix type="matrix" values="0 0 0 0 0 0 0 0 0 0 0 0 0 0 0 0 0 0 0.25 0"/>
<feBlend mode="normal" in2="shape" result="effect1_innerShadow_32_6"/>
</filter>
</defs>
</svg>
