<svg width="112" height="112" viewBox="0 0 112 112" fill="none" xmlns="http://www.w3.org/2000/svg">
<path fill-rule="evenodd" clip-rule="evenodd" d="M32.9127 0.336C38.8844 0.0610908 40.7884 0 56 0C71.2116 0 73.1156 0.0661817 79.0822 0.336C85.0487 0.605818 89.1215 1.55782 92.6851 2.93745C96.4167 4.34764 99.8022 6.552 102.602 9.40291C105.453 12.1978 107.652 15.5782 109.057 19.3149C110.442 22.8785 111.389 26.9513 111.664 32.9076C111.939 38.8895 112 40.7935 112 56C112 71.2116 111.934 73.1156 111.664 79.0873C111.394 85.0436 110.442 89.1164 109.057 92.68C107.652 96.4172 105.449 99.8032 102.602 102.602C99.8022 105.453 96.4167 107.652 92.6851 109.057C89.1215 110.442 85.0487 111.389 79.0924 111.664C73.1156 111.939 71.2116 112 56 112C40.7884 112 38.8844 111.934 32.9127 111.664C26.9564 111.394 22.8836 110.442 19.32 109.057C15.5829 107.652 12.1969 105.449 9.39782 102.602C6.54884 99.8056 4.34415 96.4212 2.93745 92.6851C1.55782 89.1215 0.610909 85.0487 0.336 79.0924C0.0610908 73.1105 0 71.2065 0 56C0 40.7884 0.0661817 38.8844 0.336 32.9178C0.605818 26.9513 1.55782 22.8785 2.93745 19.3149C4.34623 15.5786 6.5526 12.1943 9.40291 9.39782C12.198 6.54946 15.5806 4.3448 19.3149 2.93745C22.8785 1.55782 26.9513 0.610909 32.9076 0.336H32.9127ZM78.6291 10.416C72.7236 10.1462 70.952 10.0902 56 10.0902C41.048 10.0902 39.2764 10.1462 33.3709 10.416C27.9084 10.6655 24.9455 11.5767 22.9702 12.3455C20.3585 13.3636 18.4902 14.5702 16.5302 16.5302C14.6722 18.3377 13.2424 20.5382 12.3455 22.9702C11.5767 24.9455 10.6655 27.9084 10.416 33.3709C10.1462 39.2764 10.0902 41.048 10.0902 56C10.0902 70.952 10.1462 72.7236 10.416 78.6291C10.6655 84.0916 11.5767 87.0546 12.3455 89.0298C13.2415 91.4582 14.672 93.6625 16.5302 95.4698C18.3375 97.328 20.5418 98.7585 22.9702 99.6545C24.9455 100.423 27.9084 101.335 33.3709 101.584C39.2764 101.854 41.0429 101.91 56 101.91C70.9571 101.91 72.7236 101.854 78.6291 101.584C84.0916 101.335 87.0546 100.423 89.0298 99.6545C91.6415 98.6364 93.5098 97.4298 95.4698 95.4698C97.328 93.6625 98.7585 91.4582 99.6545 89.0298C100.423 87.0546 101.335 84.0916 101.584 78.6291C101.854 72.7236 101.91 70.952 101.91 56C101.91 41.048 101.854 39.2764 101.584 33.3709C101.335 27.9084 100.423 24.9455 99.6545 22.9702C98.6364 20.3585 97.4298 18.4902 95.4698 16.5302C93.6622 14.6724 91.4618 13.2425 89.0298 12.3455C87.0546 11.5767 84.0916 10.6655 78.6291 10.416ZM48.8473 73.2633C52.8419 74.9261 57.2899 75.1506 61.4316 73.8982C65.5733 72.6459 69.1518 69.9945 71.5558 66.3969C73.9598 62.7993 75.0403 58.4786 74.6126 54.1729C74.1849 49.8672 72.2757 45.8435 69.2109 42.7891C67.2572 40.8366 64.8949 39.3416 62.2941 38.4117C59.6932 37.4817 56.9185 37.14 54.1698 37.4111C51.421 37.6823 48.7666 38.5594 46.3975 39.9796C44.0285 41.3997 42.0038 43.3274 40.4692 45.624C38.9346 47.9205 37.9282 50.5287 37.5226 53.2609C37.117 55.993 37.3222 58.7811 38.1235 61.4244C38.9247 64.0678 40.3021 66.5006 42.1564 68.5477C44.0107 70.5948 46.2958 72.2053 48.8473 73.2633ZM35.6465 35.6465C38.3194 32.9737 41.4925 30.8535 44.9848 29.4069C48.477 27.9604 52.22 27.2159 56 27.2159C59.78 27.2159 63.523 27.9604 67.0152 29.4069C70.5075 30.8535 73.6806 32.9737 76.3535 35.6465C79.0263 38.3194 81.1465 41.4925 82.5931 44.9848C84.0396 48.477 84.7841 52.22 84.7841 56C84.7841 59.78 84.0396 63.523 82.5931 67.0152C81.1465 70.5075 79.0263 73.6806 76.3535 76.3535C70.9554 81.7515 63.634 84.7841 56 84.7841C48.366 84.7841 41.0446 81.7515 35.6465 76.3535C30.2485 70.9554 27.2159 63.634 27.2159 56C27.2159 48.366 30.2485 41.0446 35.6465 35.6465ZM91.168 31.5025C91.8304 30.8777 92.3606 30.1264 92.7274 29.293C93.0941 28.4595 93.2899 27.561 93.3032 26.6506C93.3165 25.7401 93.1469 24.8362 92.8046 23.9925C92.4623 23.1487 91.9542 22.3822 91.3103 21.7384C90.6665 21.0945 89.9 20.5864 89.0562 20.2441C88.2125 19.9018 87.3086 19.7322 86.3982 19.7455C85.4877 19.7588 84.5892 19.9546 83.7558 20.3214C82.9223 20.6881 82.171 21.2184 81.5462 21.8807C80.331 23.1689 79.6658 24.8799 79.6916 26.6506C79.7174 28.4212 80.4323 30.1121 81.6844 31.3643C82.9366 32.6165 84.6275 33.3313 86.3982 33.3572C88.1688 33.383 89.8799 32.7177 91.168 31.5025Z" fill="#6D995D"/>
</svg>
