<svg width="112" height="112" viewBox="0 0 112 112" fill="none" xmlns="http://www.w3.org/2000/svg">
<path fill-rule="evenodd" clip-rule="evenodd" d="M4.66651 13.2441C4.66651 10.9692 5.57019 8.78756 7.17875 7.179C8.78731 5.57044 10.969 4.66676 13.2438 4.66676H98.7465C99.8738 4.66492 100.99 4.88545 102.032 5.31574C103.075 5.74602 104.021 6.3776 104.819 7.17433C105.617 7.97105 106.249 8.91727 106.681 9.95881C107.112 11.0003 107.334 12.1167 107.333 13.2441V98.7467C107.334 99.8743 107.113 100.991 106.682 102.033C106.252 103.075 105.62 104.022 104.823 104.82C104.025 105.617 103.079 106.25 102.037 106.681C100.995 107.112 99.8787 107.334 98.7512 107.333H13.2438C12.1171 107.333 11.0013 107.111 9.96036 106.68C8.9194 106.249 7.97364 105.617 7.1771 104.82C6.38056 104.023 5.74885 103.076 5.31808 102.035C4.8873 100.994 4.66589 99.8782 4.66651 98.7514V13.2441ZM45.3038 43.8108H59.2058V50.7921C61.2125 46.7788 66.3458 43.1668 74.0598 43.1668C88.8485 43.1668 92.3532 51.1608 92.3532 65.8281V92.9974H77.3872V69.1694C77.3872 60.8161 75.3805 56.1028 70.2845 56.1028C63.2145 56.1028 60.2745 61.1848 60.2745 69.1694V92.9974H45.3038V43.8108ZM19.6372 92.3581H34.6078V43.1668H19.6372V92.3534V92.3581ZM36.7498 27.1228C36.7781 28.4046 36.55 29.6791 36.079 30.8716C35.6079 32.064 34.9035 33.1504 34.0069 34.0669C33.1104 34.9834 32.0398 35.7116 30.858 36.2088C29.6762 36.7059 28.407 36.962 27.1248 36.962C25.8427 36.962 24.5735 36.7059 23.3917 36.2088C22.2099 35.7116 21.1393 34.9834 20.2428 34.0669C19.3462 33.1504 18.6417 32.064 18.1707 30.8716C17.6997 29.6791 17.4716 28.4046 17.4998 27.1228C17.5552 24.6067 18.5936 22.2125 20.3926 20.4526C22.1916 18.6928 24.6082 17.7074 27.1248 17.7074C29.6415 17.7074 32.058 18.6928 33.857 20.4526C35.656 22.2125 36.6944 24.6067 36.7498 27.1228Z" fill="#6D995D"/>
</svg>
